<svg xmlns="http://www.w3.org/2000/svg" xmlns:xlink="http://www.w3.org/1999/xlink" width="500" zoomAndPan="magnify" viewBox="0 0 375 374.999991" height="500" preserveAspectRatio="xMidYMid meet" version="1.0"><defs><clipPath id="65d83cb4d4"><path d="M 50.703125 37.5 L 337.203125 37.5 L 337.203125 323 L 50.703125 323 Z M 50.703125 37.5 " clip-rule="nonzero"/></clipPath><clipPath id="1d9fb2f50c"><path d="M 129 90 L 261 90 L 261 324 L 129 324 Z M 129 90 " clip-rule="nonzero"/></clipPath></defs><rect x="-37.5" width="450" fill="#ffffff" y="-37.499999" height="449.999989" fill-opacity="1"/><rect x="-37.5" width="450" fill="#ffffff" y="-37.499999" height="449.999989" fill-opacity="1"/><g clip-path="url(#65d83cb4d4)"><path fill="#0866ff" d="M 337.242188 180.777344 C 337.242188 101.640625 273.101562 37.5 193.980469 37.5 C 114.859375 37.5 50.703125 101.640625 50.703125 180.777344 C 50.703125 247.964844 96.957031 304.351562 159.363281 319.832031 L 159.363281 224.5625 L 129.8125 224.5625 L 129.8125 180.777344 L 159.363281 180.777344 L 159.363281 161.910156 C 159.363281 113.148438 181.429688 90.542969 229.304688 90.542969 C 238.382812 90.542969 254.042969 92.316406 260.449219 94.105469 L 260.449219 133.789062 C 257.066406 133.429688 251.191406 133.25 243.898438 133.25 C 220.40625 133.25 211.328125 142.148438 211.328125 165.28125 L 211.328125 180.761719 L 258.121094 180.761719 L 250.085938 224.546875 L 211.328125 224.546875 L 211.328125 322.984375 C 282.269531 314.421875 337.242188 254.007812 337.242188 180.761719 Z M 337.242188 180.777344 " fill-opacity="1" fill-rule="nonzero"/></g><g clip-path="url(#1d9fb2f50c)"><path fill="#ffffff" d="M 250.097656 224.546875 L 258.132812 180.761719 L 211.339844 180.761719 L 211.339844 165.28125 C 211.339844 142.148438 220.417969 133.25 243.910156 133.25 C 251.203125 133.25 257.078125 133.429688 260.460938 133.789062 L 260.460938 94.105469 C 254.058594 92.332031 238.394531 90.542969 229.316406 90.542969 C 181.441406 90.542969 159.375 113.148438 159.375 161.910156 L 159.375 180.777344 L 129.824219 180.777344 L 129.824219 224.5625 L 159.375 224.5625 L 159.375 319.832031 C 170.460938 322.585938 182.046875 324.050781 193.992188 324.050781 C 199.871094 324.050781 205.65625 323.691406 211.351562 322.996094 L 211.351562 224.5625 L 250.109375 224.5625 Z M 250.097656 224.546875 " fill-opacity="1" fill-rule="nonzero"/></g></svg>